<svg width="32" height="40" viewBox="0 0 32 40" fill="none" xmlns="http://www.w3.org/2000/svg">
<path d="M16 25C17.7259 25 19.125 23.6009 19.125 21.875C19.125 20.1491 17.7259 18.75 16 18.75C14.2741 18.75 12.875 20.1491 12.875 21.875C12.875 23.6009 14.2741 25 16 25Z" fill="white"/>
<path d="M7.875 23.0745L9.37445 21.8749L7.875 20.6753V23.0745Z" fill="white"/>
<path d="M25.6875 13.75H6.3125C6.06394 13.7503 5.82564 13.8491 5.64988 14.0249C5.47413 14.2006 5.37527 14.4389 5.375 14.6875V29.0625C5.37527 29.3111 5.47413 29.5494 5.64988 29.7251C5.82564 29.9009 6.06394 29.9997 6.3125 30H25.6875C25.9361 29.9997 26.1744 29.9009 26.3501 29.7251C26.5259 29.5494 26.6247 29.3111 26.625 29.0625V14.6875C26.6247 14.4389 26.5259 14.2006 26.3501 14.0249C26.1744 13.8491 25.9361 13.7503 25.6875 13.75ZM9.125 17.1875C9.12566 16.6075 9.35634 16.0515 9.76643 15.6414C10.1765 15.2313 10.7325 15.0007 11.3125 15H20.6875C21.2675 15.0007 21.8235 15.2313 22.2336 15.6414C22.6437 16.0515 22.8743 16.6075 22.875 17.1875V18.75H21.625V17.1875C21.6247 16.9389 21.5259 16.7006 21.3501 16.5249C21.1744 16.3491 20.9361 16.2503 20.6875 16.25H11.3125C11.0639 16.2503 10.8256 16.3491 10.6499 16.5249C10.4741 16.7006 10.3753 16.9389 10.375 17.1875V18.75H9.125V17.1875ZM20.375 21.875C20.375 22.7403 20.1184 23.5862 19.6377 24.3056C19.1569 25.0251 18.4737 25.5858 17.6742 25.917C16.8748 26.2481 15.9951 26.3347 15.1465 26.1659C14.2978 25.9971 13.5183 25.5804 12.9064 24.9686C12.2946 24.3567 11.8779 23.5772 11.7091 22.7285C11.5403 21.8799 11.6269 21.0002 11.958 20.2008C12.2892 19.4013 12.8499 18.7181 13.5694 18.2373C14.2888 17.7566 15.1347 17.5 16 17.5C17.1599 17.5013 18.272 17.9627 19.0922 18.7828C19.9123 19.603 20.3737 20.7151 20.375 21.875ZM7.25 25C7.08424 25 6.92527 24.9342 6.80806 24.8169C6.69085 24.6997 6.625 24.5408 6.625 24.375V19.375C6.62497 19.2572 6.65821 19.1419 6.7209 19.0422C6.78358 18.9425 6.87315 18.8625 6.9793 18.8115C7.08544 18.7605 7.20383 18.7405 7.32084 18.7539C7.43784 18.7672 7.5487 18.8134 7.64062 18.887L10.7656 21.387C10.8388 21.4455 10.8979 21.5198 10.9385 21.6043C10.9791 21.6887 11.0002 21.7813 11.0002 21.875C11.0002 21.9687 10.9791 22.0613 10.9385 22.1457C10.8979 22.2302 10.8388 22.3045 10.7656 22.363L7.64062 24.863C7.52975 24.9517 7.39198 25 7.25 25ZM22.875 26.5625C22.8743 27.1425 22.6437 27.6985 22.2336 28.1086C21.8235 28.5187 21.2675 28.7493 20.6875 28.75H11.3125C10.7325 28.7493 10.1765 28.5187 9.76643 28.1086C9.35634 27.6985 9.12566 27.1425 9.125 26.5625V25H10.375V26.5625C10.3753 26.8111 10.4741 27.0494 10.6499 27.2251C10.8256 27.4009 11.0639 27.4997 11.3125 27.5H20.6875C20.9361 27.4997 21.1744 27.4009 21.3501 27.2251C21.5259 27.0494 21.6247 26.8111 21.625 26.5625V25H22.875V26.5625ZM25.375 24.375C25.375 24.4928 25.3418 24.6081 25.2791 24.7078C25.2164 24.8075 25.1268 24.8875 25.0207 24.9385C24.9146 24.9895 24.7962 25.0095 24.6792 24.9961C24.5622 24.9828 24.4513 24.9366 24.3594 24.863L21.2344 22.363C21.1612 22.3045 21.1021 22.2302 21.0615 22.1457C21.0209 22.0613 20.9998 21.9687 20.9998 21.875C20.9998 21.7813 21.0209 21.6887 21.0615 21.6043C21.1021 21.5198 21.1612 21.4455 21.2344 21.387L24.3594 18.887C24.4513 18.8134 24.5622 18.7672 24.6792 18.7539C24.7962 18.7405 24.9146 18.7605 25.0207 18.8115C25.1268 18.8625 25.2164 18.9425 25.2791 19.0422C25.3418 19.1419 25.375 19.2572 25.375 19.375V24.375Z" fill="white"/>
<path d="M24.1257 23.0745V20.6753L22.6263 21.8749L24.1257 23.0745Z" fill="white"/>
<path d="M0.375 0V40H31.625V0H0.375ZM30.375 37.3438C30.3746 37.7166 30.2263 38.074 29.9626 38.3376C29.699 38.6013 29.3416 38.7496 28.9688 38.75H3.03125C2.65842 38.7496 2.30099 38.6013 2.03736 38.3376C1.77373 38.074 1.62543 37.7166 1.625 37.3438V2.65625C1.62543 2.28342 1.77373 1.92599 2.03736 1.66236C2.30099 1.39873 2.65842 1.25043 3.03125 1.25H28.9688C29.3416 1.25043 29.699 1.39873 29.9626 1.66236C30.2263 1.92599 30.3746 2.28342 30.375 2.65625V37.3438Z" fill="white"/>
<path d="M28.9688 2.5H3.03125C2.98981 2.5 2.95007 2.51646 2.92076 2.54576C2.89146 2.57507 2.875 2.61481 2.875 2.65625V37.3438C2.875 37.3852 2.89146 37.4249 2.92076 37.4542C2.95007 37.4835 2.98981 37.5 3.03125 37.5H28.9688C29.0102 37.5 29.0499 37.4835 29.0792 37.4542C29.1085 37.4249 29.125 37.3852 29.125 37.3438V2.65625C29.125 2.61481 29.1085 2.57507 29.0792 2.54576C29.0499 2.51646 29.0102 2.5 28.9688 2.5ZM21.625 5C21.625 4.83424 21.6908 4.67527 21.8081 4.55806C21.9253 4.44085 22.0842 4.375 22.25 4.375H24.75V5.625H22.875V6.875H24.75V8.125H22.875V9.375H24.75V10.625H22.25C22.0842 10.625 21.9253 10.5592 21.8081 10.4419C21.6908 10.3247 21.625 10.1658 21.625 10V5ZM16 5C16 4.83424 16.0658 4.67527 16.1831 4.55806C16.3003 4.44085 16.4592 4.375 16.625 4.375H19.125C19.2908 4.375 19.4497 4.44085 19.5669 4.55806C19.6842 4.67527 19.75 4.83424 19.75 5V6.71875C19.7501 6.91078 19.7107 7.10078 19.6344 7.27698C19.5581 7.45318 19.4464 7.61184 19.3063 7.74312C19.5946 8.12248 19.7505 8.58599 19.75 9.0625V10.625H18.5V9.0625C18.4997 8.81394 18.4009 8.57564 18.2251 8.39988C18.0494 8.22413 17.8111 8.12527 17.5625 8.125H17.25V10.625H16V5ZM12.875 4.375H14.125V10.625H12.875V4.375ZM7.875 5C7.875 4.83424 7.94085 4.67527 8.05806 4.55806C8.17527 4.44085 8.33424 4.375 8.5 4.375H11V5.625H9.125V6.875H11V8.125H9.125V10.625H7.875V5ZM4.125 3.75H5.375V5H4.125V3.75ZM5.375 36.25H4.125V35H5.375V36.25ZM21 35H11V33.75H21V35ZM27.875 36.25H26.625V35H27.875V36.25ZM27.875 29.0625C27.8743 29.6425 27.6437 30.1985 27.2336 30.6086C26.8235 31.0187 26.2675 31.2493 25.6875 31.25H6.3125C5.73254 31.2493 5.17653 31.0187 4.76643 30.6086C4.35634 30.1985 4.12566 29.6425 4.125 29.0625V14.6875C4.12566 14.1075 4.35634 13.5515 4.76643 13.1414C5.17653 12.7313 5.73254 12.5007 6.3125 12.5H25.6875C26.2675 12.5007 26.8235 12.7313 27.2336 13.1414C27.6437 13.5515 27.8743 14.1075 27.875 14.6875V29.0625ZM27.875 5H26.625V3.75H27.875V5Z" fill="white"/>
<path d="M18.5 6.71875V5.625H17.25V6.875H18.3438C18.3852 6.875 18.4249 6.85854 18.4542 6.82924C18.4835 6.79993 18.5 6.76019 18.5 6.71875Z" fill="white"/>
</svg>
