<svg width="42" height="70" viewBox="0 0 42 70" fill="none" xmlns="http://www.w3.org/2000/svg">
<path d="M1.55238 37.7314L32.7033 68.8817C33.4237 69.6028 34.3855 70 35.411 70C36.4366 70 37.3983 69.6028 38.1188 68.8817L40.4129 66.5882C41.9056 65.0938 41.9056 62.6649 40.4129 61.1727L14.2547 35.0145L40.4419 8.82732C41.1624 8.10627 41.5602 7.14506 41.5602 6.12011C41.5602 5.09402 41.1624 4.1328 40.4419 3.41119L38.1479 1.11828C37.4268 0.397224 36.4656 -4.45384e-07 35.4401 -5.35037e-07C34.4146 -6.24691e-07 33.4528 0.397224 32.7323 1.11828L1.55238 32.2971C0.830192 33.0204 0.433528 33.9861 0.435806 35.0128C0.433528 36.0434 0.830192 37.0086 1.55238 37.7314Z" fill="url(#paint0_linear)"/>
<defs>
<linearGradient id="paint0_linear" x1="20.998" y1="70" x2="20.998" y2="-1.7976e-06" gradientUnits="userSpaceOnUse">
<stop stop-color="#3586DB"/>
<stop offset="1" stop-color="#05CBFC"/>
</linearGradient>
</defs>
</svg>
