<svg width="13" height="21" viewBox="0 0 13 21" fill="none" xmlns="http://www.w3.org/2000/svg">
<path d="M12.3339 9.68058L2.98859 0.335485C2.77244 0.11917 2.48391 0 2.17625 0C1.8686 0 1.58006 0.11917 1.36392 0.335485L0.675705 1.02353C0.227879 1.47187 0.227879 2.20054 0.675705 2.6482L8.52315 10.4956L0.666998 18.3518C0.450853 18.5681 0.331512 18.8565 0.331512 19.164C0.331512 19.4718 0.450853 19.7602 0.666998 19.9766L1.35521 20.6645C1.57153 20.8808 1.85989 21 2.16755 21C2.4752 21 2.76374 20.8808 2.97988 20.6645L12.3339 11.3109C12.5505 11.0939 12.6695 10.8042 12.6688 10.4962C12.6695 10.187 12.5505 9.89741 12.3339 9.68058Z" fill="url(#paint0_linear)"/>
<defs>
<linearGradient id="paint0_linear" x1="6.50017" y1="0" x2="6.50017" y2="21" gradientUnits="userSpaceOnUse">
<stop stop-color="#3586DB"/>
<stop offset="1" stop-color="#05CBFC"/>
</linearGradient>
</defs>
</svg>
