<svg width="42" height="70" viewBox="0 0 42 70" fill="none" xmlns="http://www.w3.org/2000/svg">
<path d="M40.4476 32.2686L9.29675 1.11828C8.57627 0.397233 7.61449 0 6.58897 0C5.56345 0 4.60167 0.397233 3.88119 1.11828L1.58714 3.41176C0.0943907 4.90622 0.0943907 7.33514 1.58714 8.82733L27.7453 34.9855L1.55812 61.1727C0.837636 61.8937 0.439835 62.8549 0.439835 63.8799C0.439835 64.906 0.837636 65.8672 1.55812 66.5888L3.85216 68.8817C4.57322 69.6028 5.53443 70 6.55995 70C7.58547 70 8.54725 69.6028 9.26773 68.8817L40.4476 37.7029C41.1698 36.9796 41.5665 36.0139 41.5642 34.9872C41.5665 33.9566 41.1698 32.9914 40.4476 32.2686Z" fill="url(#paint0_linear)"/>
<defs>
<linearGradient id="paint0_linear" x1="21.002" y1="0" x2="21.002" y2="70" gradientUnits="userSpaceOnUse">
<stop stop-color="#3586DB"/>
<stop offset="1" stop-color="#05CBFC"/>
</linearGradient>
</defs>
</svg>
