<svg width="13" height="21" viewBox="0 0 13 21" fill="none" xmlns="http://www.w3.org/2000/svg">
<path d="M0.666115 11.3194L10.0114 20.6645C10.2275 20.8808 10.5161 21 10.8237 21C11.1314 21 11.4199 20.8808 11.6361 20.6645L12.3243 19.9765C12.7721 19.5281 12.7721 18.7995 12.3243 18.3518L4.47682 10.5044L12.333 2.6482C12.5491 2.43188 12.6685 2.14352 12.6685 1.83603C12.6685 1.52821 12.5491 1.23984 12.333 1.02336L11.6448 0.335485C11.4284 0.119171 11.1401 1.77373e-06 10.8324 1.74684e-06C10.5248 1.71994e-06 10.2362 0.119171 10.0201 0.335485L0.666115 9.68912C0.449458 9.90611 0.33046 10.1958 0.331142 10.5038C0.33046 10.813 0.449458 11.1026 0.666115 11.3194Z" fill="url(#paint0_linear)"/>
<defs>
<linearGradient id="paint0_linear" x1="6.4998" y1="21" x2="6.4998" y2="1.36807e-06" gradientUnits="userSpaceOnUse">
<stop stop-color="#3A7DD6"/>
<stop offset="1" stop-color="#01D1FF"/>
</linearGradient>
</defs>
</svg>
