<svg width="21" height="21" viewBox="0 0 21 21" fill="none" xmlns="http://www.w3.org/2000/svg">
<path d="M15.4 20.9165C11.3173 20.9109 7.40331 19.2191 4.5164 16.2119C1.62949 13.2047 0.00529192 9.12761 0 4.87479C0 3.60396 0.484642 2.38519 1.34731 1.48657C2.20998 0.587962 3.38 0.0831269 4.6 0.0831269C4.85834 0.0810771 5.11625 0.1055 5.37 0.156043C5.61531 0.193856 5.85647 0.256658 6.09 0.343544C6.25425 0.403574 6.40061 0.507224 6.51461 0.644244C6.62861 0.781263 6.7063 0.946907 6.74 1.12479L8.11 7.37479C8.14693 7.54444 8.14248 7.72102 8.09706 7.88842C8.05165 8.05582 7.96671 8.20871 7.85 8.33313C7.72 8.47896 7.71 8.48938 6.48 9.15604C7.46499 11.4069 9.1932 13.2145 11.35 14.2498C12 12.9581 12.01 12.9477 12.15 12.8123C12.2694 12.6907 12.4162 12.6022 12.5769 12.5549C12.7376 12.5076 12.9071 12.503 13.07 12.5415L19.07 13.9685C19.2353 14.0085 19.3881 14.0916 19.5141 14.2101C19.64 14.3285 19.735 14.4784 19.79 14.6456C19.8744 14.8929 19.938 15.1473 19.98 15.406C20.0202 15.6678 20.0403 15.9326 20.04 16.1977C20.0216 17.4631 19.5233 18.6695 18.654 19.5536C17.7847 20.4377 16.6149 20.9276 15.4 20.9165Z" fill="white"/>
</svg>
