<svg width="36" height="40" viewBox="0 0 36 40" fill="none" xmlns="http://www.w3.org/2000/svg">
<path d="M25.2249 26.6141C27.1518 23.9355 28.3364 20.8576 28.7062 17.6088L18 14.5645L7.29382 17.6088C7.66353 20.8575 8.84814 23.9355 10.7751 26.6141C12.6513 29.2219 15.1412 31.32 18 32.7078C20.8588 31.32 23.3488 29.2219 25.2249 26.6141Z" fill="white"/>
<path d="M18 12.0804L28.8315 15.1604V10.1924L18 7.1123L7.1685 10.1924V15.1604L18 12.0804Z" fill="white"/>
<path d="M19.1947 0V4.96807L31.2209 8.38788V15.3981C31.2209 19.9597 29.8183 24.3207 27.1646 28.0095C25.09 30.893 22.3461 33.222 19.1947 34.7826V40.0001C23.9533 38.1457 28.0374 34.979 31.0436 30.8002C34.2857 26.2935 35.9995 20.9675 35.9995 15.3981V4.7786L19.1947 0Z" fill="white"/>
<path d="M16.8052 34.7826C13.6539 33.2219 10.9099 30.8929 8.83549 28.0095C6.18177 24.3207 4.77909 19.9597 4.77909 15.398V8.3878L16.8052 4.96799V0L0.000488281 4.7786V15.398C0.000488281 20.9674 1.71425 26.2934 4.95638 30.8001C7.96267 34.979 12.0467 38.1457 16.8052 40V34.7826Z" fill="white"/>
</svg>
