<svg width="42" height="70" fill="none" xmlns="http://www.w3.org/2000/svg"><path d="M1.552 37.731l31.151 31.15A3.8 3.8 0 0035.411 70a3.8 3.8 0 002.708-1.118l2.294-2.294a3.834 3.834 0 000-5.415L14.255 35.014 40.442 8.827A3.804 3.804 0 0041.56 6.12a3.807 3.807 0 00-1.118-2.709l-2.294-2.293A3.802 3.802 0 0035.44 0a3.801 3.801 0 00-2.708 1.118l-31.18 31.18a3.806 3.806 0 00-1.116 2.715 3.806 3.806 0 001.116 2.718z" fill="url(#paint0_linear)"/><defs><linearGradient id="paint0_linear" x1="20.998" y1="70" x2="20.998" y2="0" gradientUnits="userSpaceOnUse"><stop stop-color="#3586DB"/><stop offset="1" stop-color="#05CBFC"/></linearGradient></defs></svg>