<svg width="42" height="70" fill="none" xmlns="http://www.w3.org/2000/svg"><path d="M40.448 32.269L9.297 1.119A3.801 3.801 0 006.589 0a3.801 3.801 0 00-2.708 1.118L1.587 3.412a3.834 3.834 0 000 5.415l26.158 26.159L1.558 61.172A3.804 3.804 0 00.44 63.88a3.81 3.81 0 001.118 2.709l2.294 2.293A3.802 3.802 0 006.56 70a3.8 3.8 0 002.708-1.118l31.18-31.18a3.806 3.806 0 001.116-2.715 3.805 3.805 0 00-1.116-2.718z" fill="url(#paint0_linear)"/><defs><linearGradient id="paint0_linear" x1="21.002" y1="0" x2="21.002" y2="70" gradientUnits="userSpaceOnUse"><stop stop-color="#3586DB"/><stop offset="1" stop-color="#05CBFC"/></linearGradient></defs></svg>