<svg width="21" height="21" fill="none" xmlns="http://www.w3.org/2000/svg"><path d="M15.4 20.916c-4.083-.005-7.997-1.697-10.884-4.704C1.63 13.205.006 9.128 0 4.875c0-1.271.485-2.49 1.347-3.388A4.509 4.509 0 014.6.083c.258-.002.516.022.77.073.245.038.486.1.72.188a1 1 0 01.425.3c.114.137.191.303.225.48l1.37 6.25c.037.17.032.347-.013.514-.045.168-.13.32-.247.445-.13.146-.14.156-1.37.823.985 2.25 2.713 4.058 4.87 5.094.65-1.292.66-1.302.8-1.438a.99.99 0 01.427-.257.961.961 0 01.493-.014l6 1.428c.165.04.318.123.444.241s.221.268.276.436a4.673 4.673 0 01.25 1.552 4.89 4.89 0 01-1.386 3.356 4.505 4.505 0 01-3.254 1.363z" fill="#fff"/></svg>